# xmcd
#
# Track frame offsets: 
#        150
#        23050
#        47562
#        49682
#        73500
#        80330
#        104812
#        127492
#        155380
#        174130
#        182930
#        209092
#        211467
#        246405
#        262642
#        291955
#        313880
#
# Disc length: 4519 seconds
#
# Revision: 0
# Processed by: cddbd v1.5.1PL0 Copyright (c) Steve Scherf et al.
# Submitted via: ExactAudioCopy v0.95a5
#
DISCID=0211a511
DTITLE=Black Sabbath - 1. Master Of Reality - 2. Born Again
DYEAR=1900
DGENRE=Rock
TTITLE0=Sweet Leaf
TTITLE1=After Forever
TTITLE2=Embryo
TTITLE3=Children Of The Grave
TTITLE4=Orchid
TTITLE5=Lord Of This World
TTITLE6=Solitude
TTITLE7=Into The Void
TTITLE8=Trashed
TTITLE9=Stonehenge
TTITLE10=Disturbing The Priest
TTITLE11=The Dark
TTITLE12=Zero The Hero
TTITLE13=Digital Bitch
TTITLE14=Born Again
TTITLE15=Hot Line
TTITLE16=Keep It Warm
EXTD=
EXTT0=
EXTT1=
EXTT2=
EXTT3=
EXTT4=
EXTT5=
EXTT6=
EXTT7=
EXTT8=
EXTT9=
EXTT10=
EXTT11=
EXTT12=
EXTT13=
EXTT14=
EXTT15=
EXTT16=
PLAYORDER=
